{"title":"Formula 1 2013 Chine - BBC Post Race Forum","uid":8372555,"size":628024845,"categoryP":"video","categoryS":"tv_shows","magnet":"?xt=urn:btih:8fedea7e3ef53ee99709944dd37403284f95b3f1&amp;dn=Formula+1+2013+Chine+-+BBC+Post+Race+Forum&amp;tr=udp%3A%2F%2Ftracker.openbittorrent.com%3A80&amp;tr=udp%3A%2F%2Fopen.demonii.com%3A1337&amp;tr=udp%3A%2F%2Ftracker.coppersurfer.tk%3A6969&amp;tr=udp%3A%2F%2Fexodus.desync.com%3A6969","seeders":1,"leechers":0,"uploader":"IAMH67","files":5,"time":1365958001,"description":"MOTORING: F1 Forum\n\nOn: BBC Interactive \n   \nDate: Sunday 14th April 2013 \n\nTime: 10:15 to 11:15 (1 hour long)\n\nCredit :- Hannibal\n\nBBC Post race Forum show and analysis by the BBC team. This is the additional show aired after the race and the post race show on BBC Red Button.\n\nTechnical Information:\n\nVideo\n\nID                             : 0\nFormat                         : MPEG-4 Visual\nFormat profile                 : Advanced Simple@L5\nFormat settings, BVOP          : 2\nFormat settings, QPel          : No\nFormat settings, GMC           : No warppoints\nFormat settings, Matrix        : Default (H.263)\nMuxing mode                    : Packed bitstream\nCodec ID                       : XVID\nCodec ID/Hint                  : XviD\nDuration                       : 1h 2mn\nBit rate                       : 1 204 Kbps\nWidth                          : 608 pixels\nHeight                         : 336 pixels\nDisplay aspect ratio           : 16:9\nFrame rate                     : 25.000 fps\nColor space                    : YUV\nChroma subsampling             : 4:2:0\nBit depth                      : 8 bits\nScan type                      : Progressive\nCompression mode               : Lossy\nBits/(Pixel*Frame)             : 0.236\nStream size                    : 537 MiB (90%)\nWriting library                : XviD 1.2.1 (UTC 2008-12-04)\n\nAudio\n\nID                             : 1\nFormat                         : MPEG Audio\nFormat version                 : Version 1\nFormat profile                 : Layer 3\nMode                           : Joint stereo\nMode extension                 : MS Stereo\nCodec ID                       : 55\nCodec ID/Hint                  : MP3\nDuration                       : 1h 2mn\nBit rate mode                  : Constant\nBit rate                       : 128 Kbps\nChannel(s)                     : 2 channels\nSampling rate                  : 48.0 KHz\nCompression mode               : Lossy\nStream size                    : 57.1 MiB (10%)\nAlignment                      : Aligned on interleaves\nInterleave, duration           : 40 ms (1.00 video frame)\nInterleave, preload duration   : 504 ms\n\nScreens :\n &lt;a href=&quot;\nhttp://i.imgur.com/t49EA8q.jpg&quot; rel=&quot;nofollow&quot; target=&quot;_NEW&quot;&gt;\nhttp://i.imgur.com/t49EA8q.jpg&lt;/a&gt;\n &lt;a href=&quot;\nhttp://i.imgur.com/EH5F96p.jpg&quot; rel=&quot;nofollow&quot; target=&quot;_NEW&quot;&gt;\nhttp://i.imgur.com/EH5F96p.jpg&lt;/a&gt;\n &lt;a href=&quot;\nhttp://i.imgur.com/iGfNjXs.jpg&quot; rel=&quot;nofollow&quot; target=&quot;_NEW&quot;&gt;\nhttp://i.imgur.com/iGfNjXs.jpg&lt;/a&gt;","torrent":{"xt":"urn:btih:8fedea7e3ef53ee99709944dd37403284f95b3f1","amp;dn":"Formula+1+2013+Chine+-+BBC+Post+Race+Forum","amp;tr":["udp%3A%2F%2Ftracker.openbittorrent.com%3A80","udp%3A%2F%2Fopen.demonii.com%3A1337","udp%3A%2F%2Ftracker.coppersurfer.tk%3A6969","udp%3A%2F%2Fexodus.desync.com%3A6969"],"infoHash":"8fedea7e3ef53ee99709944dd37403284f95b3f1","infoHashBuffer":{"type":"Buffer","data":[143,237,234,126,62,245,62,233,151,9,148,77,211,116,3,40,79,149,179,241]},"announce":[],"urlList":[]}}